Coordinates
version=1
nRows=10
nColumns=40
inDegrees=yes

Units are S.I. units (second, meters, Newtons, ...)
Angles are in degrees.

endheader
time	pelvis_tilt	pelvis_list	pelvis_rotation	pelvis_tx	pelvis_ty	pelvis_tz	hip_flexion_r	hip_adduction_r	hip_rotation_r	knee_angle_r	knee_angle_r_beta	ankle_angle_r	subtalar_angle_r	mtp_angle_r	hip_flexion_l	hip_adduction_l	hip_rotation_l	knee_angle_l	knee_angle_l_beta	ankle_angle_l	subtalar_angle_l	mtp_angle_l	lumbar_extension	lumbar_bending	lumbar_rotation	arm_flex_r	arm_add_r	arm_rot_r	elbow_flex_r	pro_sup_r	wrist_flex_r	wrist_dev_r	arm_flex_l	arm_add_l	arm_rot_l	elbow_flex_l	pro_sup_l	wrist_flex_l	wrist_dev_l
      4.89000000	     -3.24532998	     -5.15325491	     -6.54582215	      1.02805362	      0.92895310	      0.53955904	     10.80556320	      5.99048327	    -10.21883712	     19.16376488	     19.16376488	     13.13034590	     -1.13299159	     -2.05928197	     16.91325117	    -15.69631034	     -6.85523097	     56.88807945	     56.88807945	     13.86361565	    -19.42878685	     19.21084525	     -9.75391730	      7.55471627	      0.98683312	      7.45055845	    -19.47994971	    -12.82189860	     46.23033063	     43.71513468	      0.00000000	      0.00000000	     16.43020522	    -12.12738514	    -11.94166213	     66.83221780	     44.27356255	      0.00000000	      0.00000000
      4.90878571	     -2.99264690	     -5.09292429	     -5.83250757	      1.02662948	      0.92729511	      0.54040725	     10.98418871	      5.93414075	     -9.95956440	     20.54908732	     20.54908732	     13.90087911	     -2.88516324	     -2.31929397	     18.18585009	    -15.76342390	     -6.46449482	     56.71706335	     56.71706335	     14.98702021	    -19.49074175	     20.33749429	     -9.93084568	      7.30641769	      0.37238935	      9.80280247	    -18.97267951	    -12.62576400	     46.79098125	     43.74327345	      0.00000000	      0.00000000	     15.15642098	    -11.95990354	    -11.10233079	     62.89978108	     44.23891373	      0.00000000	      0.00000000
      4.92757143	     -2.63554667	     -5.12825047	     -5.12395408	      1.02526383	      0.92573233	      0.54122863	     10.91828259	      6.02712590	     -9.65465004	     21.71410158	     21.71410158	     14.62982149	     -4.71523910	     -2.08072109	     19.31273805	    -15.84900567	     -6.06056689	     56.41670262	     56.41670262	     16.42191000	    -19.53849245	     22.08095258	    -10.18225964	      7.15109865	      0.55593925	     11.87709344	    -18.90664466	    -12.32885565	     46.46467410	     43.84998648	      0.00000000	      0.00000000	     15.17920607	    -11.29682434	     -9.38870832	     56.64474411	     44.21938792	      0.00000000	      0.00000000
      4.94635714	     -2.32525602	     -5.11920015	     -4.38628855	      1.02385063	      0.92389656	      0.54191856	     10.96912438	      6.05110014	     -9.47014357	     23.00979435	     23.00979435	     15.45727258	     -6.32714655	     -1.88145049	     20.45172337	    -15.84378002	     -5.70427840	     55.90541048	     55.90541048	     17.37805579	    -19.57550084	     22.68013627	    -10.43128882	      6.97272089	      0.34626580	     13.96918016	    -18.53754617	    -12.41985926	     47.17446661	     43.91982158	      0.00000000	      0.00000000	     14.59624191	    -10.89495420	     -7.94078163	     51.39665243	     44.20115975	      0.00000000	      0.00000000
      4.96514286	     -2.04901699	     -4.99579754	     -3.62340785	      1.02241388	      0.92184766	      0.54239186	     11.13852765	      5.91651578	     -9.38791856	     24.44224234	     24.44224234	     16.23924866	     -7.84514143	     -1.94954739	     21.56850713	    -15.62685841	     -5.38446740	     55.20392686	     55.20392686	     18.12788195	    -19.60627506	     22.88287849	    -10.68510990	      6.63349899	     -0.18820446	     16.09718763	    -17.91893842	    -12.46443819	     48.26481333	     43.92369209	      0.00000000	      0.00000000	     13.28427510	    -10.59104043	     -7.09263738	     47.79041412	     44.14633234	      0.00000000	      0.00000000
      4.98392857	     -1.73489745	     -4.96894518	     -2.85956653	      1.02096656	      0.91983678	      0.54267669	     11.18824375	      5.90898152	     -9.29967561	     25.72654153	     25.72654153	     16.99275831	     -9.35807283	     -1.89030678	     22.61268230	    -15.43783605	     -5.04397127	     54.39385165	     54.39385165	     18.82689250	    -19.60663941	     23.13971965	    -10.99764560	      6.45321803	     -0.54618800	     18.23874079	    -17.40198415	    -12.45203989	     49.22565584	     43.92567782	      0.00000000	      0.00000000	     12.22875227	    -10.19331748	     -6.22542186	     43.90468899	     44.07964678	      0.00000000	      0.00000000
      5.00271429	     -1.49091853	     -5.03697526	     -2.05785951	      1.01954522	      0.91800134	      0.54277661	     11.11226996	      6.04595003	     -9.25219226	     26.62819938	     26.62819938	     17.80720508	    -10.62625513	     -0.97909488	     23.71397628	    -15.20631794	     -4.51232943	     53.46785682	     53.46785682	     19.51120932	    -19.62476794	     23.67329578	    -11.13275895	      6.33627359	      0.05241675	     19.79138143	    -17.52585713	    -12.59095183	     49.71162764	     44.01803673	      0.00000000	      0.00000000	     13.02563573	     -9.23647009	     -4.32455505	     36.12623478	     44.02134128	      0.00000000	      0.00000000
      5.02150000	     -1.29845658	     -5.01210717	     -1.23894712	      1.01814316	      0.91612837	      0.54257051	     11.12387965	      6.01520842	     -9.38183036	     27.59615968	     27.59615968	     18.56533813	    -11.66815378	     -0.50345620	     24.78409276	    -14.79216955	     -4.00180318	     52.38852507	     52.38852507	     19.89880710	    -19.62387702	     23.62477869	    -11.30180351	      6.13584073	      0.07185925	     21.16680819	    -17.10659158	    -13.00245311	     51.77441771	     44.05882557	      0.00000000	      0.00000000	     12.08232531	     -8.67668671	     -3.29384177	     32.27743907	     44.02837901	      0.00000000	      0.00000000
      5.04028571	     -1.20134049	     -4.97930916	     -0.42863639	      1.01674235	      0.91441252	      0.54208106	     11.13840732	      5.95242456	     -9.59729101	     28.35685973	     28.35685973	     19.09296586	    -12.57743587	     -0.50913859	     25.88261350	    -14.27866616	     -3.44793949	     51.19535169	     51.19535169	     20.11675843	    -19.61934497	     23.53222580	    -11.40176046	      5.93832850	     -0.22740584	     22.98000982	    -16.54849776	    -13.04527625	     53.40682617	     44.03197474	      0.00000000	      0.00000000	     10.26852546	     -8.33225266	     -2.94207484	     30.38635750	     43.99123836	      0.00000000	      0.00000000
      5.05907143	     -1.13855081	     -4.99239950	      0.38380540	      1.01551260	      0.91317211	      0.54136860	     10.97330568	      5.95214653	     -9.86254526	     28.72626934	     28.72626934	     19.52307780	    -13.31522224	     -0.33699015	     26.89314593	    -13.71947087	     -2.79487353	     49.83136439	     49.83136439	     20.17033963	    -19.59917797	     23.33973631	    -11.42192598	      5.79250699	     -0.46252661	     24.62909251	    -16.01870887	    -12.96234058	     55.34009519	     43.99314754	      0.00000000	      0.00000000	      8.52825068	     -7.99025274	     -2.54413959	     28.26264739	     43.95403794	      0.00000000	      0.00000000
